<svg t="1642383413829" class="icon" viewBox="0 0 1024 1024" version="1.1" xmlns="http://www.w3.org/2000/svg" p-id="27520" width="32" height="32"><path d="M514.56 535.1424m-130.4576 0a130.4576 130.4576 0 1 0 260.9152 0 130.4576 130.4576 0 1 0-260.9152 0Z" fill="#F55C04" p-id="27521"></path><path d="M744.5504 245.4016h-19.2v-21.504c0-59.7504-48.5888-108.3392-108.3392-108.3392H412.1088c-59.7504 0-108.3392 48.5888-108.3392 108.3392v21.504h-19.2c-97.1776 0-176.2304 79.0528-176.2304 176.2304v311.296c0 97.1776 79.0528 176.2304 176.2304 176.2304h459.9808c97.1776 0 176.2304-79.0528 176.2304-176.2304v-311.296c0-97.1776-79.0528-176.2304-176.2304-176.2304z m-379.3408-21.5552c0-25.856 21.0432-46.8992 46.8992-46.8992h204.8512c25.856 0 46.8992 21.0432 46.8992 46.8992v21.504H365.2096v-21.504zM284.5696 306.8416h459.9808c63.2832 0 114.7904 51.5072 114.7904 114.7904V471.04H169.7792v-49.408c0-63.3344 51.5072-114.7904 114.7904-114.7904z m459.9808 540.8256H284.5696c-63.2832 0-114.7904-51.5072-114.7904-114.7904V532.48h689.5104v200.448c0.0512 63.2832-51.456 114.7392-114.7392 114.7392z" fill="#333333" p-id="27522"></path></svg>